<svg width="76" height="46" viewBox="0 0 76 46" fill="none" xmlns="http://www.w3.org/2000/svg">
<g filter="url(#filter0_d_93_3)">
<path d="M4 11C4 4.92487 8.92487 0 15 0H76V38H15C8.92487 38 4 33.0751 4 27V11Z" fill="url(#paint0_linear_93_3)"/>
</g>
<path d="M20.6445 7.64841V15H19.0902V7.64841H20.6445ZM28.1735 7.64841V15H26.831L23.6326 10.3729H23.5788V15H22.0244V7.64841H23.3885L26.5618 12.2719H26.6264V7.64841H28.1735ZM33.5469 9.76271C33.5182 9.47314 33.3949 9.24819 33.1771 9.08785C32.9594 8.92752 32.6638 8.84735 32.2905 8.84735C32.0368 8.84735 31.8226 8.88325 31.648 8.95504C31.4733 9.02444 31.3392 9.12136 31.2459 9.2458C31.155 9.37024 31.1095 9.51143 31.1095 9.66938C31.1047 9.801 31.1322 9.91587 31.1921 10.014C31.2543 10.1121 31.3392 10.1971 31.4469 10.2688C31.5546 10.3382 31.6791 10.3993 31.8203 10.4519C31.9614 10.5022 32.1122 10.5453 32.2726 10.5811L32.933 10.7391C33.2537 10.8109 33.5481 10.9066 33.8161 11.0263C34.0841 11.1459 34.3163 11.2931 34.5125 11.4678C34.7087 11.6425 34.8607 11.8483 34.9684 12.0852C35.0785 12.3221 35.1347 12.5937 35.1371 12.9001C35.1347 13.35 35.0198 13.74 34.7925 14.0703C34.5675 14.3981 34.2421 14.653 33.8161 14.8349C33.3925 15.0144 32.8816 15.1041 32.2833 15.1041C31.6898 15.1041 31.1729 15.0132 30.7326 14.8313C30.2947 14.6494 29.9524 14.3802 29.706 14.0236C29.4619 13.6647 29.3338 13.2207 29.3219 12.6919H30.8259C30.8427 12.9383 30.9133 13.1442 31.0377 13.3093C31.1645 13.472 31.3333 13.5953 31.5439 13.679C31.7568 13.7604 31.9973 13.8011 32.2654 13.8011C32.5286 13.8011 32.7572 13.7628 32.951 13.6862C33.1472 13.6096 33.2992 13.5031 33.4069 13.3667C33.5146 13.2303 33.5684 13.0736 33.5684 12.8965C33.5684 12.7313 33.5194 12.5925 33.4212 12.4801C33.3255 12.3676 33.1843 12.2719 32.9977 12.1929C32.8134 12.1139 32.5872 12.0421 32.3192 11.9775L31.5187 11.7765C30.8989 11.6257 30.4095 11.39 30.0506 11.0693C29.6916 10.7487 29.5133 10.3167 29.5157 9.77348C29.5133 9.32836 29.6318 8.93948 29.8711 8.60684C30.1128 8.2742 30.4442 8.01455 30.8654 7.82789C31.2866 7.64123 31.7652 7.5479 32.3013 7.5479C32.8469 7.5479 33.3231 7.64123 33.7299 7.82789C34.1392 8.01455 34.4574 8.2742 34.6848 8.60684C34.9121 8.93948 35.0294 9.32477 35.0366 9.76271H33.5469ZM36.0037 8.92991V7.64841H42.0414V8.92991H39.7907V15H38.2544V8.92991H36.0037ZM43.5057 15H41.8401L44.378 7.64841H46.381L48.9153 15H47.2497L45.4082 9.32836H45.3508L43.5057 15ZM43.4016 12.1103H47.3359V13.3236H43.4016V12.1103ZM56.0503 7.64841V15H54.7078L51.5094 10.3729H51.4555V15H49.9012V7.64841H51.2653L54.4385 12.2719H54.5031V7.64841H56.0503ZM57.1556 8.92991V7.64841H63.1934V8.92991H60.9426V15H59.4063V8.92991H57.1556ZM14.3314 31V19.36H16.7924V28.971H21.7826V31H14.3314ZM33.8157 25.18C33.8157 26.4493 33.5751 27.5292 33.0939 28.4196C32.6165 29.3101 31.9648 29.9902 31.1387 30.4601C30.3165 30.9261 29.392 31.1591 28.3651 31.1591C27.3307 31.1591 26.4024 30.9242 25.5802 30.4544C24.758 29.9845 24.1081 29.3044 23.6307 28.414C23.1533 27.5235 22.9146 26.4455 22.9146 25.18C22.9146 23.9107 23.1533 22.8308 23.6307 21.9403C24.1081 21.0499 24.758 20.3717 25.5802 19.9056C26.4024 19.4358 27.3307 19.2008 28.3651 19.2008C29.392 19.2008 30.3165 19.4358 31.1387 19.9056C31.9648 20.3717 32.6165 21.0499 33.0939 21.9403C33.5751 22.8308 33.8157 23.9107 33.8157 25.18ZM31.3206 25.18C31.3206 24.3578 31.1975 23.6644 30.9512 23.0998C30.7087 22.5352 30.3658 22.1071 29.9225 21.8153C29.4791 21.5235 28.96 21.3777 28.3651 21.3777C27.7703 21.3777 27.2512 21.5235 26.8078 21.8153C26.3645 22.1071 26.0197 22.5352 25.7734 23.0998C25.5309 23.6644 25.4097 24.3578 25.4097 25.18C25.4097 26.0022 25.5309 26.6956 25.7734 27.2602C26.0197 27.8248 26.3645 28.2529 26.8078 28.5447C27.2512 28.8364 27.7703 28.9823 28.3651 28.9823C28.96 28.9823 29.4791 28.8364 29.9225 28.5447C30.3658 28.2529 30.7087 27.8248 30.9512 27.2602C31.1975 26.6956 31.3206 26.0022 31.3206 25.18ZM37.1486 31H34.5115L38.5298 19.36H41.7012L45.7138 31H43.0766L40.161 22.0199H40.07L37.1486 31ZM36.9838 26.4247H43.2131V28.3458H36.9838V26.4247ZM57.0109 19.36V31H54.8852L49.8212 23.6738H49.7359V31H47.2749V19.36H49.4347L54.459 26.6805H54.5613V19.36H57.0109ZM65.5188 22.7076C65.4733 22.2491 65.2781 21.893 64.9333 21.6391C64.5885 21.3852 64.1206 21.2583 63.5295 21.2583C63.1279 21.2583 62.7887 21.3151 62.5121 21.4288C62.2355 21.5387 62.0233 21.6922 61.8756 21.8892C61.7316 22.0862 61.6596 22.3098 61.6596 22.5598C61.652 22.7682 61.6956 22.9501 61.7903 23.1055C61.8888 23.2608 62.0233 23.3953 62.1938 23.509C62.3644 23.6189 62.5614 23.7155 62.7849 23.7989C63.0085 23.8784 63.2472 23.9466 63.5011 24.0035L64.5469 24.2536C65.0546 24.3672 65.5206 24.5188 65.945 24.7082C66.3694 24.8977 66.7369 25.1307 67.0476 25.4073C67.3583 25.6839 67.599 26.0098 67.7695 26.3849C67.9438 26.76 68.0328 27.1901 68.0366 27.6751C68.0328 28.3874 67.8509 29.0051 67.491 29.5279C67.1348 30.047 66.6195 30.4506 65.945 30.7386C65.2744 31.0227 64.4654 31.1648 63.5181 31.1648C62.5784 31.1648 61.76 31.0208 61.0628 30.7329C60.3694 30.4449 59.8276 30.0186 59.4373 29.4541C59.0508 28.8857 58.8481 28.1828 58.8292 27.3454H61.2106C61.2371 27.7357 61.3489 28.0616 61.5459 28.323C61.7467 28.5807 62.0139 28.7758 62.3473 28.9084C62.6845 29.0373 63.0653 29.1017 63.4897 29.1017C63.9065 29.1017 64.2684 29.0411 64.5753 28.9198C64.886 28.7986 65.1266 28.6299 65.2971 28.414C65.4676 28.198 65.5529 27.9498 65.5529 27.6694C65.5529 27.408 65.4752 27.1882 65.3198 27.0101C65.1683 26.832 64.9447 26.6805 64.6492 26.5554C64.3574 26.4304 63.9993 26.3167 63.575 26.2144L62.3075 25.8961C61.3261 25.6574 60.5513 25.2842 59.9829 24.7765C59.4146 24.2687 59.1323 23.5848 59.1361 22.7247C59.1323 22.0199 59.3198 21.4042 59.6987 20.8775C60.0814 20.3508 60.6062 19.9397 61.2731 19.6442C61.94 19.3486 62.6978 19.2008 63.5465 19.2008C64.4105 19.2008 65.1645 19.3486 65.8086 19.6442C66.4565 19.9397 66.9605 20.3508 67.3205 20.8775C67.6804 21.4042 67.8661 22.0142 67.8775 22.7076H65.5188Z" fill="url(#paint1_linear_93_3)"/>
<defs>
<filter id="filter0_d_93_3" x="0" y="0" width="80" height="46" filterUnits="userSpaceOnUse" color-interpolation-filters="sRGB">
<feFlood flood-opacity="0" result="BackgroundImageFix"/>
<feColorMatrix in="SourceAlpha" type="matrix" values="0 0 0 0 0 0 0 0 0 0 0 0 0 0 0 0 0 0 127 0" result="hardAlpha"/>
<feOffset dy="4"/>
<feGaussianBlur stdDeviation="2"/>
<feComposite in2="hardAlpha" operator="out"/>
<feColorMatrix type="matrix" values="0 0 0 0 0 0 0 0 0 0 0 0 0 0 0 0 0 0 0.25 0"/>
<feBlend mode="normal" in2="BackgroundImageFix" result="effect1_dropShadow_93_3"/>
<feBlend mode="normal" in="SourceGraphic" in2="effect1_dropShadow_93_3" result="shape"/>
</filter>
<linearGradient id="paint0_linear_93_3" x1="102.515" y1="-40.6512" x2="-39.3309" y2="45.2669" gradientUnits="userSpaceOnUse">
<stop stop-color="#45069D"/>
<stop offset="1" stop-color="#180237"/>
</linearGradient>
<linearGradient id="paint1_linear_93_3" x1="41" y1="3" x2="41" y2="34" gradientUnits="userSpaceOnUse">
<stop stop-color="#F5E380"/>
<stop offset="1" stop-color="#FFFADD"/>
</linearGradient>
</defs>
</svg>
