<svg width="76" height="46" viewBox="0 0 76 46" fill="none" xmlns="http://www.w3.org/2000/svg">
<g filter="url(#filter0_d_93_4)">
<path d="M4 11C4 4.92487 8.92487 0 15 0H76V38H15C8.92487 38 4 33.0751 4 27V11Z" fill="url(#paint0_linear_93_4)"/>
</g>
<path d="M32.6959 13.1742L32.1353 15.309H21.8376L22.3905 13.1742H32.6959ZM27.3436 25L22.091 18.7492L22.0987 16.8294H24.6943C25.2728 16.8294 25.7565 16.7219 26.1456 16.5069C26.5347 16.2919 26.8265 16.0001 27.021 15.6315C27.2156 15.2629 27.3154 14.8431 27.3205 14.3721C27.3154 13.6656 27.1081 13.0897 26.6985 12.6443C26.2941 12.1938 25.626 11.9686 24.6943 11.9686H21.8376L22.4673 9.2732H24.6943C25.9997 9.2732 27.0876 9.4703 27.9579 9.86449C28.8333 10.2536 29.4886 10.809 29.9237 11.5309C30.364 12.2527 30.5867 13.1128 30.5918 14.111C30.5867 14.9967 30.4382 15.7697 30.1464 16.4301C29.8597 17.0905 29.4067 17.6409 28.7872 18.0811C28.1729 18.5214 27.3717 18.849 26.3837 19.0641L26.2608 19.1101L30.9604 24.8618V25H27.3436ZM32.7112 9.2732L32.1353 11.4387H23.6576L24.2335 9.2732H32.7112ZM40.7064 25.215C39.6211 25.215 38.6535 25.0154 37.8037 24.616C36.959 24.2167 36.2884 23.6664 35.7918 22.965C35.2952 22.2637 35.0367 21.4599 35.0162 20.5538H38.2414C38.2773 21.163 38.5332 21.657 39.0093 22.0359C39.4854 22.4147 40.0511 22.6041 40.7064 22.6041C41.2286 22.6041 41.6893 22.4889 42.0887 22.2586C42.4931 22.0231 42.8079 21.698 43.0332 21.2833C43.2636 20.8635 43.3787 20.3823 43.3787 19.8396C43.3787 19.2867 43.261 18.8004 43.0255 18.3806C42.7951 17.9608 42.4752 17.6332 42.0656 17.3977C41.6561 17.1622 41.1876 17.0419 40.6603 17.0368C40.1996 17.0368 39.7516 17.1315 39.3165 17.3209C38.8865 17.5103 38.5511 17.7688 38.3105 18.0965L35.3541 17.5666L36.099 9.2732H45.7132V11.9916H38.8404L38.4334 15.931H38.5256C38.802 15.5419 39.2192 15.2194 39.7772 14.9634C40.3353 14.7074 40.9598 14.5795 41.6509 14.5795C42.598 14.5795 43.4427 14.8022 44.185 15.2475C44.9274 15.6929 45.5135 16.3047 45.9436 17.0828C46.3736 17.8559 46.586 18.7467 46.5809 19.7552C46.586 20.8149 46.3403 21.7569 45.8437 22.5811C45.3523 23.4002 44.6637 24.0452 43.7781 24.5162C42.8975 24.9821 41.8736 25.215 40.7064 25.215ZM55.2826 25.3456C53.9618 25.3404 52.8253 25.0154 51.8731 24.3703C50.926 23.7253 50.1965 22.791 49.6845 21.5674C49.1777 20.3439 48.9268 18.8721 48.932 17.152C48.932 15.437 49.1854 13.9754 49.6922 12.7672C50.2041 11.559 50.9336 10.6401 51.8807 10.0104C52.8329 9.37559 53.9669 9.05819 55.2826 9.05819C56.5983 9.05819 57.7297 9.37559 58.6767 10.0104C59.6289 10.6452 60.361 11.5667 60.873 12.7749C61.3849 13.9779 61.6383 15.437 61.6332 17.152C61.6332 18.8772 61.3772 20.3516 60.8653 21.5751C60.3585 22.7987 59.6315 23.7329 58.6844 24.378C57.7373 25.023 56.6034 25.3456 55.2826 25.3456ZM55.2826 22.5888C56.1836 22.5888 56.9029 22.1357 57.4404 21.2296C57.9779 20.3234 58.2442 18.9642 58.239 17.152C58.239 15.9591 58.1162 14.966 57.8704 14.1725C57.6298 13.379 57.2868 12.7826 56.8414 12.3832C56.4012 11.9839 55.8815 11.7843 55.2826 11.7843C54.3867 11.7843 53.67 12.2322 53.1324 13.1281C52.5949 14.024 52.3236 15.3653 52.3184 17.152C52.3184 18.3601 52.4388 19.3687 52.6794 20.1775C52.9251 20.9813 53.2707 21.5854 53.716 21.9898C54.1614 22.3891 54.6836 22.5888 55.2826 22.5888Z" fill="url(#paint1_linear_93_4)"/>
<path d="M22.7459 36V27.6109H24.5195V34.5376H28.116V36H22.7459ZM31.066 36H29.1653L32.0614 27.6109H34.3471L37.239 36H35.3384L33.237 29.5279H33.1714L31.066 36ZM30.9472 32.7025H35.4367V34.0871H30.9472V32.7025ZM38.3641 36V27.6109H40.1377V31.3098H40.2483L43.2673 27.6109H45.3932L42.2801 31.3672L45.4301 36H43.3082L41.0102 32.551L40.1377 33.616V36H38.3641ZM46.4323 36V27.6109H48.2059V31.0722H51.8065V27.6109H53.5761V36H51.8065V32.5346H48.2059V36H46.4323ZM59.7047 30.0236C59.672 29.6932 59.5313 29.4365 59.2828 29.2535C59.0343 29.0705 58.6971 28.9791 58.271 28.9791C57.9816 28.9791 57.7372 29.02 57.5378 29.1019C57.3385 29.1811 57.1855 29.2917 57.079 29.4337C56.9753 29.5757 56.9234 29.7369 56.9234 29.9171C56.9179 30.0673 56.9493 30.1984 57.0176 30.3103C57.0886 30.4223 57.1855 30.5192 57.3084 30.6012C57.4313 30.6804 57.5733 30.75 57.7344 30.8101C57.8956 30.8674 58.0676 30.9166 58.2506 30.9575L59.0043 31.1378C59.3702 31.2197 59.7061 31.3289 60.0119 31.4655C60.3178 31.602 60.5827 31.77 60.8066 31.9693C61.0305 32.1687 61.204 32.4035 61.3268 32.6739C61.4525 32.9442 61.5166 33.2542 61.5194 33.6037C61.5166 34.1171 61.3856 34.5622 61.1261 34.9391C60.8694 35.3132 60.498 35.604 60.0119 35.8116C59.5286 36.0164 58.9456 36.1188 58.2629 36.1188C57.5856 36.1188 56.9958 36.015 56.4933 35.8075C55.9935 35.5999 55.603 35.2927 55.3218 34.8858C55.0432 34.4762 54.8971 33.9696 54.8835 33.3661H56.5998C56.6189 33.6474 56.6995 33.8822 56.8415 34.0707C56.9862 34.2564 57.1787 34.397 57.419 34.4926C57.6621 34.5854 57.9365 34.6319 58.2424 34.6319C58.5428 34.6319 58.8036 34.5882 59.0248 34.5008C59.2487 34.4134 59.4221 34.2919 59.545 34.1362C59.6679 33.9806 59.7293 33.8017 59.7293 33.5996C59.7293 33.4112 59.6733 33.2528 59.5614 33.1244C59.4521 32.9961 59.291 32.8869 59.078 32.7967C58.8677 32.7066 58.6097 32.6247 58.3038 32.551L57.3904 32.3216C56.6831 32.1495 56.1246 31.8806 55.715 31.5146C55.3054 31.1487 55.1019 30.6558 55.1047 30.0359C55.1019 29.5279 55.2371 29.0842 55.5102 28.7046C55.786 28.325 56.1642 28.0287 56.6448 27.8157C57.1255 27.6027 57.6716 27.4962 58.2833 27.4962C58.906 27.4962 59.4494 27.6027 59.9136 27.8157C60.3806 28.0287 60.7438 28.325 61.0032 28.7046C61.2627 29.0842 61.3965 29.5239 61.4047 30.0236H59.7047Z" fill="url(#paint2_linear_93_4)"/>
<path d="M36.8987 2.36364H37.6675V4.72514C37.6675 4.99029 37.6042 5.2223 37.4775 5.42116C37.352 5.62003 37.1762 5.77509 36.9502 5.88636C36.7241 5.99645 36.4607 6.05149 36.16 6.05149C35.8582 6.05149 35.5942 5.99645 35.3681 5.88636C35.142 5.77509 34.9663 5.62003 34.8408 5.42116C34.7153 5.2223 34.6526 4.99029 34.6526 4.72514V2.36364H35.4214V4.65945C35.4214 4.79794 35.4516 4.92105 35.5119 5.02876C35.5735 5.13648 35.6599 5.22112 35.7712 5.28267C35.8825 5.34422 36.0121 5.375 36.16 5.375C36.3092 5.375 36.4388 5.34422 36.5489 5.28267C36.6602 5.22112 36.746 5.13648 36.8063 5.02876C36.8679 4.92105 36.8987 4.79794 36.8987 4.65945V2.36364ZM38.35 6V2.36364H39.7847C40.0605 2.36364 40.2955 2.41631 40.4896 2.52166C40.6837 2.62583 40.8317 2.77083 40.9335 2.95668C41.0365 3.14134 41.088 3.3544 41.088 3.59588C41.088 3.83736 41.0359 4.05043 40.9317 4.23509C40.8275 4.41974 40.6766 4.56357 40.4789 4.66655C40.2824 4.76953 40.0445 4.82102 39.7652 4.82102H38.8507V4.2049H39.6409C39.7888 4.2049 39.9108 4.17945 40.0066 4.12855C40.1037 4.07647 40.1759 4.00485 40.2233 3.91371C40.2718 3.82138 40.2961 3.71544 40.2961 3.59588C40.2961 3.47514 40.2718 3.36979 40.2233 3.27983C40.1759 3.18868 40.1037 3.11825 40.0066 3.06854C39.9096 3.01764 39.7865 2.99219 39.6373 2.99219H39.1189V6H38.35ZM42.7061 2.99751V2.36364H45.6926V2.99751H44.5793V6H43.8194V2.99751H42.7061ZM49.41 4.18182C49.41 4.57836 49.3348 4.91572 49.1845 5.19389C49.0354 5.47206 48.8318 5.68454 48.5737 5.83132C48.3169 5.97692 48.028 6.04972 47.7072 6.04972C47.3841 6.04972 47.0941 5.97633 46.8372 5.82955C46.5804 5.68277 46.3773 5.47029 46.2282 5.19212C46.079 4.91394 46.0045 4.57718 46.0045 4.18182C46.0045 3.78527 46.079 3.44792 46.2282 3.16974C46.3773 2.89157 46.5804 2.67969 46.8372 2.53409C47.0941 2.38731 47.3841 2.31392 47.7072 2.31392C48.028 2.31392 48.3169 2.38731 48.5737 2.53409C48.8318 2.67969 49.0354 2.89157 49.1845 3.16974C49.3348 3.44792 49.41 3.78527 49.41 4.18182ZM48.6305 4.18182C48.6305 3.92495 48.5921 3.70833 48.5151 3.53196C48.4394 3.35559 48.3322 3.22183 48.1938 3.13068C48.0553 3.03954 47.8931 2.99396 47.7072 2.99396C47.5214 2.99396 47.3592 3.03954 47.2207 3.13068C47.0822 3.22183 46.9745 3.35559 46.8976 3.53196C46.8218 3.70833 46.7839 3.92495 46.7839 4.18182C46.7839 4.43868 46.8218 4.6553 46.8976 4.83168C46.9745 5.00805 47.0822 5.14181 47.2207 5.23295C47.3592 5.3241 47.5214 5.36967 47.7072 5.36967C47.8931 5.36967 48.0553 5.3241 48.1938 5.23295C48.3322 5.14181 48.4394 5.00805 48.5151 4.83168C48.5921 4.6553 48.6305 4.43868 48.6305 4.18182Z" fill="url(#paint3_linear_93_4)"/>
<defs>
<filter id="filter0_d_93_4" x="0" y="0" width="80" height="46" filterUnits="userSpaceOnUse" color-interpolation-filters="sRGB">
<feFlood flood-opacity="0" result="BackgroundImageFix"/>
<feColorMatrix in="SourceAlpha" type="matrix" values="0 0 0 0 0 0 0 0 0 0 0 0 0 0 0 0 0 0 127 0" result="hardAlpha"/>
<feOffset dy="4"/>
<feGaussianBlur stdDeviation="2"/>
<feComposite in2="hardAlpha" operator="out"/>
<feColorMatrix type="matrix" values="0 0 0 0 0 0 0 0 0 0 0 0 0 0 0 0 0 0 0.25 0"/>
<feBlend mode="normal" in2="BackgroundImageFix" result="effect1_dropShadow_93_4"/>
<feBlend mode="normal" in="SourceGraphic" in2="effect1_dropShadow_93_4" result="shape"/>
</filter>
<linearGradient id="paint0_linear_93_4" x1="102.515" y1="-40.6512" x2="-39.3309" y2="45.2669" gradientUnits="userSpaceOnUse">
<stop stop-color="#45069D"/>
<stop offset="1" stop-color="#180237"/>
</linearGradient>
<linearGradient id="paint1_linear_93_4" x1="42" y1="9" x2="42" y2="25" gradientUnits="userSpaceOnUse">
<stop stop-color="#F5E380"/>
<stop offset="1" stop-color="#FFFADD"/>
</linearGradient>
<linearGradient id="paint2_linear_93_4" x1="42" y1="28" x2="42" y2="36" gradientUnits="userSpaceOnUse">
<stop stop-color="#F5E380"/>
<stop offset="1" stop-color="#FFFADD"/>
</linearGradient>
<linearGradient id="paint3_linear_93_4" x1="42" y1="2" x2="42" y2="6" gradientUnits="userSpaceOnUse">
<stop stop-color="#F5E380"/>
<stop offset="1" stop-color="#FFFADD"/>
</linearGradient>
</defs>
</svg>
